<svg width="92" height="41" viewBox="0 0 92 41" fill="none" xmlns="http://www.w3.org/2000/svg">
<g clip-path="url(#clip0_28_10857)">
<path d="M28.2063 30.8928H23.9688V9.71289H28.2063V30.8917V30.8928Z" fill="#02174C"/>
<path d="M44.5755 30.8934H40.6268V23.5511C40.6268 22.4778 40.3809 21.6401 39.8912 21.038C39.4004 20.4359 38.7238 20.1343 37.8617 20.1343C37.2566 20.1343 36.7221 20.283 36.2588 20.5793C35.7955 20.8757 35.4354 21.2945 35.1782 21.8359C34.9211 22.3773 34.7925 23.0244 34.7925 23.7772V30.8934H30.8438V16.4736H34.0354L34.1732 19.0338C34.6681 18.2056 35.3292 17.5752 36.1547 17.1417C36.9802 16.7093 37.9343 16.4925 39.0167 16.4925C40.7412 16.4925 42.0981 17.0359 43.0888 18.1228C44.0796 19.2097 44.5748 20.6998 44.5748 22.5919V30.8944L44.5755 30.8934Z" fill="#02174C"/>
<path d="M62.0793 30.8927H58.6122L58.4059 28.9723C57.8194 29.6498 57.1153 30.187 56.2939 30.5817C55.4725 30.9775 54.5767 31.1744 53.6043 31.1744C52.3471 31.1744 51.2258 30.8571 50.2402 30.2215C49.2546 29.5859 48.4768 28.7126 47.9076 27.6027C47.3384 26.4917 47.0547 25.2352 47.0547 23.8331C47.0547 22.431 47.3391 21.1619 47.9076 20.0562C48.4761 18.9504 49.2535 18.0792 50.2402 17.4436C51.2258 16.808 52.3471 16.4908 53.6043 16.4908C54.503 16.4908 55.3398 16.6583 56.1154 16.9923C56.8906 17.3264 57.5621 17.7902 58.1306 18.3829V9.71387H62.0793V30.8927ZM54.6225 27.5462C55.2735 27.5462 55.8632 27.3954 56.3907 27.0938C56.9185 26.7922 57.3396 26.3807 57.657 25.8582C57.9734 25.3357 58.1317 24.7409 58.1317 24.0718V23.564C58.1317 22.8959 57.9734 22.3022 57.657 21.7849C57.3407 21.2677 56.9185 20.8604 56.3907 20.564C55.8632 20.2677 55.2735 20.119 54.6225 20.119C53.9715 20.119 53.3521 20.2792 52.8206 20.5986C52.2892 20.919 51.8687 21.3588 51.5616 21.919C51.2544 22.4792 51.1001 23.1169 51.1001 23.832C51.1001 24.5472 51.2533 25.1713 51.5616 25.7315C51.8687 26.2917 52.2881 26.7336 52.8206 27.0592C53.3521 27.3839 53.9532 27.5462 54.6225 27.5462Z" fill="#02174C"/>
<path d="M78.4517 30.893H75.2456L75.1082 28.6333C74.6214 29.4616 73.9774 30.093 73.1743 30.5254C72.3716 30.9579 71.4337 31.1747 70.3604 31.1747C68.5992 31.1747 67.2185 30.6197 66.2186 29.5087C65.2187 28.3977 64.7188 26.8731 64.7188 24.9339V16.4722H68.6674V24.0019C68.6674 25.1035 68.9218 25.9674 69.4309 26.5925C69.94 27.2187 70.635 27.5317 71.5154 27.5317C72.3958 27.5317 73.1593 27.2051 73.6959 26.5506C74.2325 25.8961 74.5008 25.0093 74.5008 23.8888V16.4722H78.4498V30.8919L78.4517 30.893Z" fill="#02174C"/>
<path d="M80.7617 29.6784L81.6289 26.2334C81.9046 26.5444 82.2729 26.8313 82.737 27.0951C83.2003 27.359 83.7002 27.5684 84.2368 27.7234C84.7738 27.8784 85.2796 27.9569 85.7572 27.9569C86.3257 27.9569 86.7703 27.8459 87.0918 27.625C87.4132 27.404 87.5734 27.1046 87.5734 26.7286C87.5734 26.4176 87.4653 26.1569 87.2501 25.9454C87.0346 25.7339 86.7461 25.5454 86.3829 25.381C86.0204 25.2166 85.6194 25.0543 85.1788 24.8941C84.5828 24.6585 83.9707 24.3863 83.3421 24.0753C82.7135 23.7643 82.1839 23.3413 81.7536 22.8041C81.3218 22.268 81.1066 21.557 81.1066 20.6722C81.1066 19.7873 81.3218 19.089 81.7536 18.4627C82.1839 17.8366 82.7942 17.3518 83.5829 17.0083C84.3717 16.6649 85.2888 16.4932 86.3349 16.4932C88.0316 16.4932 89.7242 16.9308 91.4121 17.8062L90.2978 21.0114C90.0039 20.7758 89.6377 20.557 89.1968 20.3549C88.7569 20.1528 88.305 19.9905 87.8417 19.868C87.3788 19.7455 86.9635 19.6847 86.5969 19.6847C86.1472 19.6847 85.7972 19.779 85.5439 19.9674C85.2921 20.1559 85.1656 20.4146 85.1656 20.7444C85.1656 20.9894 85.2521 21.2083 85.4266 21.4009C85.6011 21.5936 85.8602 21.7779 86.204 21.9517C86.5482 22.1255 86.9726 22.3119 87.4766 22.5099C88.1001 22.7454 88.7305 23.025 89.3683 23.3496C90.0061 23.6742 90.5427 24.1077 90.9785 24.6491C91.4139 25.1904 91.6324 25.9077 91.6324 26.802C91.6324 27.6962 91.4007 28.4449 90.9374 29.1035C90.4745 29.7621 89.8232 30.2731 88.9834 30.6354C88.1437 30.9977 87.1603 31.1789 86.0328 31.1789C84.1522 31.1789 82.3961 30.6804 80.7628 29.6825L80.7617 29.6784Z" fill="#02174C"/>
<path d="M60.1526 38.8789H59.0544L61.0869 33.6475H62.192L64.2215 38.8789H63.1237L62.7055 37.7553H60.5708L60.1526 38.8789ZM60.9135 36.8139H62.3646L61.637 34.8747L60.9135 36.8139Z" fill="#02174C"/>
<path d="M65.9708 40.6229H64.9922V35.3914H65.8484L65.8994 35.8657C66.0441 35.6961 66.2179 35.5631 66.4209 35.4668C66.624 35.3705 66.8454 35.3223 67.0851 35.3223C67.3974 35.3223 67.6748 35.4008 67.9175 35.5579C68.1605 35.715 68.3515 35.9296 68.4922 36.2029C68.633 36.4762 68.7022 36.7872 68.7022 37.1359C68.7022 37.4846 68.6319 37.7923 68.4922 38.0669C68.3515 38.3411 68.1605 38.5567 67.9175 38.7139C67.6748 38.8708 67.3974 38.9494 67.0851 38.9494C66.8626 38.9494 66.6573 38.9076 66.4678 38.826C66.2791 38.7432 66.1127 38.6289 65.9697 38.4826V40.624L65.9708 40.6229ZM66.8369 38.0489C67.0074 38.0489 67.1566 38.0101 67.286 37.9315C67.4157 37.8533 67.5165 37.7453 67.5902 37.6071C67.6635 37.4689 67.7001 37.3108 67.7001 37.1348C67.7001 36.9589 67.6635 36.7977 67.5902 36.6605C67.5165 36.5233 67.4146 36.4155 67.286 36.3359C67.1577 36.2563 67.0085 36.2176 66.8414 36.2176C66.683 36.2176 66.5401 36.2532 66.4125 36.3244C66.2861 36.3956 66.1831 36.494 66.1053 36.6186C66.0269 36.7443 65.9822 36.8888 65.9708 37.0511V37.2259C65.9822 37.384 66.0258 37.5254 66.1035 37.6502C66.1809 37.7747 66.282 37.8721 66.4096 37.9432C66.536 38.0143 66.679 38.05 66.8381 38.05L66.8369 38.0489Z" fill="#02174C"/>
<path d="M70.5798 40.6233H69.6016V35.3919H70.4574L70.5084 35.8662C70.6535 35.6966 70.8269 35.5636 71.0299 35.4673C71.233 35.3709 71.4544 35.3228 71.6941 35.3228C72.0064 35.3228 72.2839 35.4013 72.5269 35.5584C72.7695 35.7155 72.9605 35.9301 73.1012 36.2034C73.242 36.4767 73.3113 36.7877 73.3113 37.1364C73.3113 37.4851 73.2409 37.7928 73.1012 38.0674C72.9605 38.3416 72.7695 38.5572 72.5269 38.7144C72.2839 38.8712 72.0064 38.9499 71.6941 38.9499C71.4716 38.9499 71.2667 38.9081 71.0769 38.8265C70.8881 38.7437 70.7217 38.6294 70.5787 38.4831V40.6245L70.5798 40.6233ZM71.4463 38.0494C71.6164 38.0494 71.7656 38.0106 71.895 37.932C72.0247 37.8538 72.1259 37.7458 72.1992 37.6076C72.2725 37.4693 72.3095 37.3113 72.3095 37.1353C72.3095 36.9594 72.2725 36.7982 72.1992 36.661C72.1259 36.5238 72.0236 36.4159 71.895 36.3364C71.7667 36.2568 71.6175 36.2181 71.4504 36.2181C71.292 36.2181 71.1494 36.2536 71.0219 36.3248C70.8951 36.3961 70.7921 36.4945 70.7147 36.6191C70.6359 36.7447 70.5912 36.8893 70.5798 37.0516V37.2264C70.5912 37.3845 70.6348 37.5259 70.7125 37.6507C70.7902 37.7752 70.891 37.8726 71.0186 37.9437C71.145 38.0148 71.288 38.0505 71.4471 38.0505L71.4463 38.0494Z" fill="#02174C"/>
<path d="M73.9699 38.58L74.1843 37.7284C74.2524 37.8051 74.3433 37.8762 74.4577 37.9409C74.5721 38.006 74.6956 38.0583 74.8279 38.0959C74.9606 38.1346 75.0863 38.1538 75.2036 38.1538C75.3444 38.1538 75.4536 38.1264 75.5331 38.0718C75.6127 38.0177 75.6526 37.9432 75.6526 37.851C75.6526 37.7747 75.6258 37.7096 75.5731 37.6573C75.5199 37.605 75.4484 37.5589 75.3586 37.5181C75.2688 37.4772 75.1699 37.4375 75.0607 37.3977C74.9137 37.3401 74.7616 37.272 74.6065 37.1956C74.4515 37.1191 74.321 37.0144 74.214 36.8814C74.1066 36.7485 74.0538 36.5736 74.0538 36.3548C74.0538 36.1359 74.1066 35.9631 74.214 35.8092C74.3199 35.6542 74.4709 35.5349 74.6659 35.45C74.8609 35.3652 75.0874 35.3223 75.3455 35.3223C75.7648 35.3223 76.1822 35.4301 76.5994 35.6469L76.3237 36.4385C76.2515 36.3799 76.1606 36.3265 76.0525 36.2762C75.9433 36.226 75.8322 36.1862 75.7179 36.1558C75.6035 36.1254 75.5005 36.1107 75.4107 36.1107C75.2996 36.1107 75.2128 36.1338 75.1505 36.1809C75.0881 36.227 75.0566 36.2908 75.0566 36.3725C75.0566 36.4333 75.0779 36.4867 75.1208 36.5349C75.1637 36.583 75.2282 36.628 75.3128 36.671C75.3975 36.7139 75.5027 36.76 75.627 36.8081C75.7809 36.8668 75.937 36.9359 76.0943 37.0155C76.2515 37.095 76.3842 37.2029 76.4923 37.3359C76.6005 37.4689 76.6536 37.6468 76.6536 37.868C76.6536 38.0888 76.5964 38.2742 76.4821 38.4363C76.3677 38.5988 76.2064 38.7256 75.9994 38.8143C75.7923 38.9035 75.5496 38.9482 75.271 38.9482C74.8066 38.9482 74.3719 38.8249 73.9688 38.5789L73.9699 38.58Z" fill="#02174C"/>
<path d="M79.8685 38.7877C79.6083 38.8946 79.355 38.948 79.1102 38.948C78.8653 38.948 78.6326 38.8923 78.4387 38.7825C78.2452 38.6726 78.0941 38.5177 77.9849 38.3187C77.8757 38.1197 77.8214 37.8903 77.8214 37.6296V36.283H77.2266V35.3898H77.8724V34.5176H78.7972V35.3898H79.7388V36.283H78.7972V37.4484C78.7972 37.639 78.8481 37.7876 78.95 37.8936C79.0519 37.9993 79.1787 38.0516 79.3305 38.0516C79.4683 38.0516 79.6043 38.0076 79.7347 37.9185L79.8674 38.7866L79.8685 38.7877Z" fill="#02174C"/>
<path d="M82.3281 38.9495C81.9792 38.9495 81.6669 38.8709 81.3906 38.714C81.1142 38.5568 80.8976 38.3424 80.7396 38.0689C80.5823 37.7955 80.5039 37.4846 80.5039 37.1359C80.5039 36.7872 80.5823 36.4794 80.7396 36.2061C80.8968 35.9328 81.1142 35.7171 81.3906 35.559C81.6669 35.4009 81.9792 35.3213 82.3281 35.3213C82.6771 35.3213 82.9883 35.4009 83.261 35.559C83.5333 35.7171 83.7485 35.9328 83.9068 36.2061C84.0637 36.4794 84.1425 36.7894 84.1425 37.1359C84.1425 37.4826 84.0637 37.7955 83.9068 38.0689C83.7496 38.3424 83.5344 38.5568 83.261 38.714C82.9875 38.8709 82.6771 38.9495 82.3281 38.9495ZM82.3252 38.0531C82.4814 38.0531 82.621 38.0133 82.7445 37.9328C82.8681 37.8523 82.9659 37.7432 83.0363 37.6051C83.1078 37.4668 83.1433 37.3087 83.1433 37.1328C83.1433 36.9569 83.1078 36.803 83.0363 36.6658C82.9648 36.5286 82.8681 36.4197 82.7445 36.3402C82.621 36.2606 82.4814 36.2197 82.3252 36.2197C82.1691 36.2197 82.025 36.2595 81.9019 36.3402C81.7783 36.4208 81.6812 36.5297 81.6097 36.6658C81.5386 36.803 81.5027 36.959 81.5027 37.1328C81.5027 37.3066 81.5386 37.4668 81.6097 37.6051C81.6812 37.7432 81.7783 37.8523 81.9019 37.9328C82.025 38.0133 82.1661 38.0531 82.3252 38.0531Z" fill="#02174C"/>
<path d="M86.0105 38.8795H85.0352V35.3915H85.8851L85.9189 35.9946C86.0321 35.7831 86.1861 35.6176 86.3811 35.4993C86.5757 35.381 86.7993 35.3213 87.0504 35.3213C87.1229 35.3213 87.1962 35.3266 87.2695 35.337C87.3432 35.3475 87.4187 35.3632 87.4953 35.3841L87.3729 36.2836C87.2226 36.2396 87.0819 36.2176 86.9481 36.2176C86.7604 36.2176 86.5951 36.2616 86.4533 36.3485C86.3114 36.4354 86.2026 36.5569 86.126 36.7108C86.0483 36.8658 86.0105 37.0459 86.0105 37.2532V38.8784V38.8795Z" fill="#02174C"/>
<path d="M91.3534 38.4887C90.9319 38.7956 90.4708 38.9495 89.9697 38.9495C89.5984 38.9495 89.2649 38.8679 88.9687 38.7035C88.6729 38.5391 88.4402 38.3172 88.269 38.0355C88.0975 37.7537 88.0117 37.4365 88.0117 37.0836C88.0117 36.7307 88.0894 36.4448 88.2445 36.1799C88.3995 35.915 88.6106 35.7056 88.8782 35.5517C89.1454 35.3978 89.4496 35.3213 89.7894 35.3213C90.1292 35.3213 90.4495 35.4051 90.7167 35.5736C90.9839 35.7422 91.1921 35.9768 91.342 36.2784C91.4923 36.5799 91.5667 36.9276 91.5667 37.3234V37.4354H89.0618C89.1025 37.5726 89.1689 37.6932 89.2609 37.7966C89.3525 37.9004 89.468 37.982 89.6076 38.0426C89.7473 38.1035 89.9056 38.134 90.0852 38.134C90.4319 38.134 90.7545 38.0185 91.0536 37.7883L91.3523 38.4898L91.3534 38.4887ZM89.019 36.9265H90.6669C90.6482 36.7757 90.6024 36.6417 90.5291 36.5276C90.4554 36.4124 90.3597 36.3223 90.2402 36.2574C90.1208 36.1925 89.9881 36.16 89.8404 36.16C89.6923 36.16 89.5578 36.1935 89.4412 36.2616C89.325 36.3297 89.2301 36.4197 89.1575 36.5339C89.0853 36.648 89.0384 36.7789 89.0179 36.9276L89.019 36.9265Z" fill="#02174C"/>
<path d="M16.2042 8.3151C16.2042 12.9067 12.5768 16.6302 8.10157 16.6302C3.62632 16.6302 0 12.9067 0 8.3151C0 3.72352 3.62734 0 8.1026 0C12.5779 0 16.2052 3.72248 16.2052 8.3151H16.2042ZM15.6991 23.7453V16.4668L8.1026 22.3348L0.505073 16.4658V23.7443L8.10157 29.6123L15.6981 23.7443L15.6991 23.7453ZM15.6991 35.0206V27.7421L8.1026 33.6101L0.505073 27.7421V35.0206L8.10157 40.8887L15.6981 35.0206H15.6991Z" fill="url(#paint0_linear_28_10857)"/>
</g>
<defs>
<linearGradient id="paint0_linear_28_10857" x1="8.1026" y1="4.70259" x2="8.1026" y2="30.1536" gradientUnits="userSpaceOnUse">
<stop stop-color="#FDAB04"/>
<stop offset="0.67" stop-color="#FD6B00"/>
<stop offset="1" stop-color="#DC007B"/>
</linearGradient>
<clipPath id="clip0_28_10857">
<rect width="92" height="41" fill="white"/>
</clipPath>
</defs>
</svg>
