<svg width="250" height="45" viewBox="0 0 250 45" fill="none" xmlns="http://www.w3.org/2000/svg">
<path d="M159.658 20.1064C158.696 20.1064 157.84 19.9257 157.089 19.5642C156.339 19.2028 155.746 18.7113 155.311 18.0897C154.877 17.4536 154.633 16.7453 154.58 15.9646H157.919C157.959 16.3839 158.136 16.7236 158.452 16.9838C158.769 17.244 159.157 17.3741 159.618 17.3741C160.039 17.3741 160.362 17.2874 160.586 17.1139C160.823 16.926 160.942 16.6875 160.942 16.3983C160.942 16.0514 160.777 15.7984 160.448 15.6394C160.118 15.4659 159.585 15.278 158.848 15.0756C158.057 14.8732 157.399 14.6636 156.872 14.4467C156.345 14.2154 155.891 13.8613 155.509 13.3842C155.127 12.8927 154.936 12.2349 154.936 11.4109C154.936 10.717 155.107 10.0882 155.45 9.5244C155.805 8.94615 156.319 8.49078 156.991 8.15829C157.675 7.82579 158.485 7.65955 159.42 7.65955C160.803 7.65955 161.89 8.03541 162.68 8.78713C163.484 9.53886 163.945 10.5363 164.063 11.7796H160.942C160.889 11.3603 160.718 11.0278 160.428 10.7821C160.151 10.5363 159.783 10.4135 159.322 10.4135C158.927 10.4135 158.624 10.5002 158.413 10.6737C158.202 10.8327 158.097 11.0568 158.097 11.3459C158.097 11.6928 158.261 11.953 158.591 12.1265C158.933 12.3 159.46 12.4735 160.171 12.6469C160.988 12.8782 161.653 13.1095 162.166 13.3408C162.68 13.5577 163.128 13.9191 163.51 14.4251C163.905 14.9166 164.109 15.5816 164.122 16.42C164.122 17.1284 163.938 17.7644 163.569 18.3282C163.214 18.8776 162.693 19.3113 162.008 19.6293C161.337 19.9473 160.553 20.1064 159.658 20.1064Z" fill="#051C3A"/>
<path d="M149.236 20.1064L145.716 14.9594V20.1064H142.176V3.82977H145.716V12.8259L149.216 7.83294H153.585L148.781 13.9916L153.626 20.1064H149.236Z" fill="#051C3A"/>
<path d="M134.503 20.1064C133.423 20.1064 132.449 19.8534 131.581 19.3474C130.725 18.8414 130.047 18.1186 129.547 17.179C129.06 16.2393 128.817 15.1406 128.817 13.8829C128.817 12.6397 129.067 11.5483 129.567 10.6086C130.067 9.6545 130.752 8.92447 131.62 8.4185C132.489 7.91253 133.463 7.65955 134.542 7.65955C135.621 7.65955 136.595 7.91253 137.464 8.4185C138.333 8.92447 139.017 9.6545 139.517 10.6086C140.017 11.5483 140.267 12.6397 140.267 13.8829C140.267 15.1262 140.011 16.2249 139.497 17.179C138.997 18.1186 138.306 18.8414 137.424 19.3474C136.556 19.8534 135.582 20.1064 134.503 20.1064ZM134.503 16.8971C135.148 16.8971 135.694 16.6369 136.141 16.1164C136.602 15.596 136.832 14.8515 136.832 13.8829C136.832 12.9144 136.608 12.1699 136.161 11.6495C135.727 11.129 135.187 10.8688 134.542 10.8688C133.884 10.8688 133.338 11.129 132.903 11.6495C132.469 12.1554 132.252 12.8999 132.252 13.8829C132.252 14.8515 132.463 15.596 132.884 16.1164C133.318 16.6369 133.858 16.8971 134.503 16.8971Z" fill="#051C3A"/>
<path d="M121.618 20.1064C120.448 20.1064 119.393 19.8534 118.452 19.3474C117.525 18.8414 116.791 18.1186 116.249 17.179C115.722 16.2393 115.458 15.1406 115.458 13.8829C115.458 12.6397 115.729 11.5483 116.271 10.6086C116.813 9.6545 117.554 8.92447 118.495 8.4185C119.436 7.91253 120.491 7.65955 121.66 7.65955C122.829 7.65955 123.885 7.91253 124.826 8.4185C125.767 8.92447 126.508 9.6545 127.05 10.6086C127.592 11.5483 127.863 12.6397 127.863 13.8829C127.863 15.1262 127.585 16.2249 127.028 17.179C126.487 18.1186 125.738 18.8414 124.783 19.3474C123.842 19.8534 122.787 20.1064 121.618 20.1064ZM121.618 16.8971C122.316 16.8971 122.908 16.6369 123.393 16.1164C123.892 15.596 124.141 14.8515 124.141 13.8829C124.141 12.9144 123.899 12.1699 123.414 11.6495C122.944 11.129 122.359 10.8688 121.66 10.8688C120.947 10.8688 120.356 11.129 119.885 11.6495C119.415 12.1554 119.179 12.8999 119.179 13.8829C119.179 14.8515 119.408 15.596 119.864 16.1164C120.334 16.6369 120.919 16.8971 121.618 16.8971Z" fill="#051C3A"/>
<path d="M105.701 9.50917C106.038 8.94341 106.522 8.48645 107.154 8.13828C107.786 7.79012 108.509 7.61604 109.323 7.61604C110.292 7.61604 111.169 7.86991 111.956 8.37765C112.742 8.88538 113.36 9.61072 113.809 10.5537C114.272 11.4966 114.504 12.5919 114.504 13.8394C114.504 15.087 114.272 16.1895 113.809 17.147C113.36 18.0899 112.742 18.8225 111.956 19.3448C111.169 19.8525 110.292 20.1064 109.323 20.1064C108.495 20.1064 107.772 19.9395 107.154 19.6059C106.536 19.2577 106.052 18.8008 105.701 18.235V19.9323H102.099V3.82977H105.701V9.50917ZM110.839 13.8394C110.839 12.911 110.587 12.1857 110.081 11.6634C109.59 11.1267 108.979 10.8583 108.249 10.8583C107.533 10.8583 106.922 11.1267 106.417 11.6634C105.925 12.2002 105.68 12.9328 105.68 13.8612C105.68 14.7896 105.925 15.5222 106.417 16.059C106.922 16.5957 107.533 16.8641 108.249 16.8641C108.965 16.8641 109.576 16.5957 110.081 16.059C110.587 15.5077 110.839 14.7679 110.839 13.8394Z" fill="#051C3A"/>
<path d="M87.7863 11.7129C87.7863 12.1666 87.7573 12.6392 87.6994 13.1307H76.4893C76.5665 14.1137 76.8852 14.8699 77.4452 15.3992C78.0245 15.9096 78.7294 16.1648 79.5598 16.1648C80.7957 16.1648 81.655 15.6544 82.1378 14.6336H87.4097C87.1394 15.6733 86.647 16.6091 85.9324 17.4409C85.2372 18.2727 84.3586 18.9249 83.2965 19.3975C82.2344 19.8701 81.0467 20.1064 79.7336 20.1064C78.15 20.1064 76.7403 19.7755 75.5044 19.1139C74.2685 18.4522 73.3029 17.507 72.6077 16.2782C71.9125 15.0495 71.5649 13.6127 71.5649 11.9681C71.5649 10.3234 71.9029 8.88667 72.5788 7.65789C73.274 6.42911 74.2395 5.4839 75.4755 4.82225C76.7114 4.1606 78.1307 3.82977 79.7336 3.82977C81.2978 3.82977 82.6882 4.15115 83.9048 4.79389C85.1214 5.43664 86.0676 6.3535 86.7435 7.54447C87.4387 8.73544 87.7863 10.1249 87.7863 11.7129ZM82.7171 10.4368C82.7171 9.60503 82.4275 8.94338 81.8481 8.45187C81.2688 7.96036 80.5446 7.71461 79.6756 7.71461C78.8452 7.71461 78.1404 7.95091 77.5611 8.42352C77.001 8.89612 76.6534 9.56723 76.5183 10.4368H82.7171Z" fill="#051C3A"/>
<path d="M245.564 7.65955C246.912 7.65955 247.985 8.13035 248.783 9.07195C249.594 9.99884 250 11.2788 250 12.9119V20.1064H246.493V13.4195C246.493 12.5956 246.293 11.9556 245.894 11.4995C245.496 11.0434 244.959 10.8154 244.285 10.8154C243.611 10.8154 243.075 11.0434 242.676 11.4995C242.277 11.9556 242.078 12.5956 242.078 13.4195V20.1064H238.55V7.79196H242.078V9.42505C242.435 8.88069 242.917 8.45402 243.522 8.14506C244.127 7.82138 244.808 7.65955 245.564 7.65955Z" fill="#525A72"/>
<path d="M231.35 20.1064C230.181 20.1064 229.126 19.8534 228.185 19.3474C227.258 18.8414 226.524 18.1186 225.982 17.179C225.455 16.2393 225.191 15.1406 225.191 13.8829C225.191 12.6397 225.462 11.5483 226.004 10.6086C226.545 9.6545 227.287 8.92447 228.228 8.4185C229.169 7.91253 230.224 7.65955 231.393 7.65955C232.562 7.65955 233.617 7.91253 234.559 8.4185C235.5 8.92447 236.241 9.6545 236.783 10.6086C237.325 11.5483 237.595 12.6397 237.595 13.8829C237.595 15.1262 237.317 16.2249 236.761 17.179C236.22 18.1186 235.471 18.8414 234.516 19.3474C233.575 19.8534 232.52 20.1064 231.35 20.1064ZM231.35 16.8971C232.049 16.8971 232.641 16.6369 233.126 16.1164C233.625 15.596 233.874 14.8515 233.874 13.8829C233.874 12.9144 233.632 12.1699 233.147 11.6495C232.676 11.129 232.092 10.8688 231.393 10.8688C230.68 10.8688 230.089 11.129 229.618 11.6495C229.148 12.1554 228.912 12.8999 228.912 13.8829C228.912 14.8515 229.14 15.596 229.597 16.1164C230.067 16.6369 230.652 16.8971 231.35 16.8971Z" fill="#525A72"/>
<path d="M221.863 6.85271C221.158 6.85271 220.578 6.66624 220.124 6.2933C219.685 5.90602 219.466 5.43268 219.466 4.87327C219.466 4.29952 219.685 3.82618 220.124 3.45324C220.578 3.06596 221.158 2.87231 221.863 2.87231C222.552 2.87231 223.117 3.06596 223.555 3.45324C224.01 3.82618 224.237 4.29952 224.237 4.87327C224.237 5.43268 224.01 5.90602 223.555 6.2933C223.117 6.66624 222.552 6.85271 221.863 6.85271ZM223.861 8.10062V20.1064H219.842V8.10062H223.861Z" fill="#525A72"/>
<path d="M218.511 16.9057V20.1064H216.861C215.684 20.1064 214.767 19.7753 214.109 19.1131C213.451 18.4361 213.122 17.3398 213.122 15.8241V10.9237H211.832V7.78925H213.122V4.78723H216.367V7.78925H218.492V10.9237H216.367V15.8682C216.367 16.2361 216.443 16.501 216.595 16.6629C216.747 16.8248 217 16.9057 217.354 16.9057H218.511Z" fill="#525A72"/>
<path d="M199.427 13.8829C199.427 12.6253 199.671 11.5266 200.159 10.5869C200.66 9.64728 201.35 8.92447 202.227 8.4185C203.119 7.91253 204.136 7.65955 205.278 7.65955C206.741 7.65955 207.96 8.05709 208.935 8.85218C209.924 9.64728 210.571 10.7676 210.878 12.2133H207.075C206.755 11.2881 206.135 10.8255 205.215 10.8255C204.561 10.8255 204.038 11.0929 203.648 11.6278C203.258 12.1482 203.063 12.8999 203.063 13.8829C203.063 14.866 203.258 15.6249 203.648 16.1598C204.038 16.6802 204.561 16.9404 205.215 16.9404C206.135 16.9404 206.755 16.4778 207.075 15.5526H210.878C210.571 16.9694 209.924 18.0825 208.935 18.892C207.946 19.7016 206.727 20.1064 205.278 20.1064C204.136 20.1064 203.119 19.8534 202.227 19.3474C201.35 18.8414 200.66 18.1186 200.159 17.179C199.671 16.2393 199.427 15.1406 199.427 13.8829Z" fill="#525A72"/>
<path d="M194.038 7.65955C195.386 7.65955 196.458 8.13035 197.256 9.07195C198.068 9.99884 198.473 11.2788 198.473 12.9119V20.1064H194.966V13.4195C194.966 12.5956 194.767 11.9556 194.368 11.4995C193.969 11.0434 193.432 10.8154 192.758 10.8154C192.084 10.8154 191.548 11.0434 191.149 11.4995C190.75 11.9556 190.551 12.5956 190.551 13.4195V20.1064H187.023V7.79196H190.551V9.42505C190.909 8.88069 191.39 8.45402 191.995 8.14506C192.6 7.82138 193.281 7.65955 194.038 7.65955Z" fill="#525A72"/>
<path d="M185.114 8.617V19.9841H181.593V18.4359C181.236 18.9384 180.748 19.3458 180.131 19.6582C179.527 19.957 178.854 20.1064 178.112 20.1064C177.234 20.1064 176.458 19.9162 175.785 19.536C175.113 19.1421 174.591 18.5785 174.22 17.8452C173.849 17.1118 173.664 16.2494 173.664 15.258V8.617H177.165V14.7895C177.165 15.55 177.364 16.1408 177.762 16.5618C178.16 16.9828 178.696 17.1933 179.369 17.1933C180.055 17.1933 180.597 16.9828 180.996 16.5618C181.394 16.1408 181.593 15.55 181.593 14.7895V8.617H185.114Z" fill="#525A72"/>
<path d="M169.683 6.85644C169.068 6.85644 168.561 6.6698 168.165 6.29651C167.782 5.90887 167.59 5.43508 167.59 4.87515C167.59 4.30086 167.782 3.82707 168.165 3.45378C168.561 3.06614 169.068 2.87231 169.683 2.87231C170.285 2.87231 170.778 3.06614 171.161 3.45378C171.557 3.82707 171.756 4.30086 171.756 4.87515C171.756 5.43508 171.557 5.90887 171.161 6.29651C170.778 6.6698 170.285 6.85644 169.683 6.85644ZM171.448 21.6731C171.448 23.1519 171.092 24.2143 170.381 24.8604C169.669 25.5208 168.678 25.851 167.405 25.851H166.031V22.7283H166.872C167.255 22.7283 167.529 22.6494 167.693 22.4914C167.857 22.3335 167.939 22.0751 167.939 21.7162V8.10552H171.448V21.6731Z" fill="#525A72"/>
<path d="M90.6489 10.5319H98.2825V14.3616H90.6489V10.5319Z" fill="#051C3A"/>
<path d="M195.899 31.7079V33.2754H193.778V39.7399H191.828V33.2754H189.708V31.7079H195.899Z" fill="#061927"/>
<path d="M186.106 38.3211H183.118L182.639 39.7399H180.598L183.494 31.7079H185.752L188.649 39.7399H186.585L186.106 38.3211ZM185.604 36.8109L184.612 33.8704L183.631 36.8109H185.604Z" fill="#061927"/>
<path d="M176.293 33.2754V34.9001H178.904V36.4104H176.293V38.1724H179.246V39.7399H174.343V31.7079H179.246V33.2754H176.293Z" fill="#061927"/>
<path d="M172.717 34.2937C172.717 34.759 172.61 35.1861 172.397 35.5752C172.185 35.9565 171.858 36.2655 171.417 36.5019C170.976 36.7384 170.429 36.8566 169.775 36.8566H168.566V39.7399H166.616V31.7079H169.775C170.413 31.7079 170.953 31.8185 171.394 32.0397C171.835 32.2609 172.166 32.566 172.386 32.955C172.606 33.344 172.717 33.7903 172.717 34.2937ZM169.627 35.3006C169.999 35.3006 170.277 35.2128 170.459 35.0374C170.641 34.862 170.733 34.6141 170.733 34.2937C170.733 33.9733 170.641 33.7254 170.459 33.55C170.277 33.3745 169.999 33.2868 169.627 33.2868H168.566V35.3006H169.627Z" fill="#061927"/>
<path d="M161.786 33.2754V34.9001H164.398V36.4104H161.786V38.1724H164.74V39.7399H159.836V31.7079H164.74V33.2754H161.786Z" fill="#061927"/>
<path d="M155.869 39.7399L154.204 36.7079H153.737V39.7399H151.787V31.7079H155.059C155.69 31.7079 156.226 31.8185 156.667 32.0397C157.116 32.2609 157.45 32.566 157.671 32.955C157.891 33.3364 158.001 33.7636 158.001 34.2365C158.001 34.7704 157.849 35.2472 157.545 35.6667C157.249 36.0862 156.808 36.3837 156.223 36.5591L158.07 39.7399H155.869ZM153.737 35.3234H154.945C155.303 35.3234 155.569 35.2357 155.744 35.0603C155.926 34.8848 156.017 34.6369 156.017 34.3166C156.017 34.0115 155.926 33.7712 155.744 33.5958C155.569 33.4203 155.303 33.3326 154.945 33.3326H153.737V35.3234Z" fill="#061927"/>
<path d="M146.777 38.058L145.443 41.2731H144.417L145.158 38.058H146.777Z" fill="#061927"/>
<path d="M139.031 31.7537C139.867 31.7537 140.6 31.9177 141.231 32.2457C141.87 32.5736 142.36 33.0428 142.702 33.653C143.052 34.2556 143.227 34.9573 143.227 35.7582C143.227 36.5591 143.052 37.2609 142.702 37.8635C142.36 38.4585 141.87 38.9199 141.231 39.2479C140.6 39.5759 139.867 39.7399 139.031 39.7399H136.248V31.7537H139.031ZM138.974 38.3784C139.81 38.3784 140.456 38.1495 140.912 37.6919C141.368 37.2342 141.596 36.5897 141.596 35.7582C141.596 34.9268 141.368 34.2784 140.912 33.8132C140.456 33.3402 139.81 33.1038 138.974 33.1038H137.845V38.3784H138.974Z" fill="#061927"/>
<path d="M132.356 38.2181H129.186L128.661 39.7399H126.985L129.847 31.7422H131.706L134.568 39.7399H132.88L132.356 38.2181ZM131.922 36.9367L130.771 33.5957L129.619 36.9367H131.922Z" fill="#061927"/>
<path d="M122.392 33.0465V35.0488H125.071V36.3188H122.392V38.4355H125.414V39.7399H120.795V31.7422H125.414V33.0465H122.392Z" fill="#061927"/>
<path d="M116.985 39.7399L115.229 36.6278H114.476V39.7399H112.88V31.7537H115.867C116.483 31.7537 117.007 31.8643 117.441 32.0855C117.874 32.299 118.197 32.5927 118.41 32.9665C118.63 33.3326 118.741 33.7445 118.741 34.2022C118.741 34.7285 118.589 35.2052 118.285 35.6324C117.98 36.0519 117.528 36.3418 116.928 36.5019L118.832 39.7399H116.985ZM114.476 35.4264H115.81C116.243 35.4264 116.567 35.3234 116.779 35.1175C116.992 34.9039 117.099 34.6103 117.099 34.2365C117.099 33.8704 116.992 33.5881 116.779 33.3898C116.567 33.1839 116.243 33.0809 115.81 33.0809H114.476V35.4264Z" fill="#061927"/>
<path d="M107.79 38.058L106.456 41.2731H105.43L106.171 38.058H107.79Z" fill="#061927"/>
<path d="M104.301 34.2251C104.301 34.6522 104.198 35.0527 103.993 35.4264C103.796 35.8002 103.48 36.1015 103.047 36.3303C102.621 36.5591 102.081 36.6736 101.428 36.6736H100.093V39.7399H98.4971V31.7537H101.428C102.043 31.7537 102.568 31.8605 103.001 32.074C103.434 32.2876 103.758 32.5813 103.97 32.955C104.191 33.3288 104.301 33.7521 104.301 34.2251ZM101.359 35.3807C101.8 35.3807 102.127 35.2815 102.34 35.0832C102.553 34.8772 102.659 34.5912 102.659 34.2251C102.659 33.447 102.226 33.058 101.359 33.058H100.093V35.3807H101.359Z" fill="#061927"/>
<path d="M92.6279 39.82C91.8829 39.82 91.1987 39.6445 90.5754 39.2937C89.952 38.9428 89.4579 38.4584 89.093 37.8406C88.7281 37.2151 88.5457 36.5095 88.5457 35.7239C88.5457 34.9459 88.7281 34.2479 89.093 33.6301C89.4579 33.0046 89.952 32.5164 90.5754 32.1655C91.1987 31.8147 91.8829 31.6392 92.6279 31.6392C93.3804 31.6392 94.0646 31.8147 94.6804 32.1655C95.3037 32.5164 95.794 33.0046 96.1513 33.6301C96.5162 34.2479 96.6987 34.9459 96.6987 35.7239C96.6987 36.5095 96.5162 37.2151 96.1513 37.8406C95.794 38.4584 95.3037 38.9428 94.6804 39.2937C94.057 39.6445 93.3728 39.82 92.6279 39.82ZM92.6279 38.3898C93.1068 38.3898 93.5287 38.283 93.8936 38.0694C94.2585 37.8482 94.5435 37.5355 94.7488 37.1312C94.954 36.7269 95.0567 36.2578 95.0567 35.7239C95.0567 35.1899 94.954 34.7246 94.7488 34.328C94.5435 33.9237 94.2585 33.6148 93.8936 33.4012C93.5287 33.1877 93.1068 33.0809 92.6279 33.0809C92.1489 33.0809 91.7232 33.1877 91.3507 33.4012C90.9859 33.6148 90.7008 33.9237 90.4955 34.328C90.2903 34.7246 90.1877 35.1899 90.1877 35.7239C90.1877 36.2578 90.2903 36.7269 90.4955 37.1312C90.7008 37.5355 90.9859 37.8482 91.3507 38.0694C91.7232 38.283 92.1489 38.3898 92.6279 38.3898Z" fill="#061927"/>
<path d="M86.7512 31.7537V39.7399H85.1548V36.3418H81.7453V39.7399H80.1489V31.7537H81.7453V35.0374H85.1548V31.7537H86.7512Z" fill="#061927"/>
<path d="M75.3376 39.82C74.7827 39.82 74.2809 39.7246 73.8324 39.5339C73.3915 39.3433 73.0418 39.0687 72.7834 38.7101C72.5249 38.3516 72.3919 37.9283 72.3843 37.4401H74.0947C74.1175 37.7681 74.2315 38.0275 74.4368 38.2182C74.6496 38.4089 74.9385 38.5042 75.3034 38.5042C75.6759 38.5042 75.9686 38.4165 76.1814 38.241C76.3943 38.058 76.5007 37.8215 76.5007 37.5317C76.5007 37.2952 76.4285 37.1007 76.284 36.9481C76.1396 36.7956 75.9572 36.6774 75.7367 36.5934C75.5239 36.5019 75.2274 36.4028 74.8473 36.296C74.3304 36.1434 73.9085 35.9947 73.5816 35.8497C73.2623 35.6972 72.9848 35.4722 72.7492 35.1747C72.5211 34.8696 72.4071 34.4653 72.4071 33.9619C72.4071 33.489 72.5249 33.0771 72.7606 32.7262C72.9962 32.3753 73.3269 32.1083 73.7526 31.9253C74.1783 31.7346 74.6648 31.6392 75.2122 31.6392C76.0332 31.6392 76.6983 31.8414 77.2077 32.2456C77.7246 32.6423 78.0097 33.1991 78.0629 33.9161H76.3068C76.2916 33.6415 76.1738 33.4165 75.9534 33.241C75.7405 33.058 75.4554 32.9665 75.0981 32.9665C74.7865 32.9665 74.5356 33.0465 74.3456 33.2067C74.1631 33.3669 74.0719 33.5996 74.0719 33.9047C74.0719 34.1182 74.1403 34.2975 74.2771 34.4424C74.4216 34.5797 74.5964 34.6941 74.8017 34.7857C75.0145 34.8696 75.311 34.9687 75.6911 35.0832C76.208 35.2357 76.6299 35.3883 76.9568 35.5408C77.2837 35.6934 77.565 35.9222 77.8006 36.2273C78.0363 36.5324 78.1541 36.9329 78.1541 37.4287C78.1541 37.8558 78.0439 38.2525 77.8234 38.6186C77.603 38.9847 77.2799 39.2784 76.8542 39.4996C76.4285 39.7132 75.9229 39.82 75.3376 39.82Z" fill="#061927"/>
<path d="M8.58789 36.0678V0C18.5316 1.26872 25.4323 5.19473 29.5803 9.96848V44.0426C26.1688 36.0518 13.7439 35.7053 8.58789 36.0678Z" fill="#074FB2"/>
<path d="M47.3944 32.6038V0H50.5724V35.7933C38.3407 35.0719 30.6887 43.3591 29.5801 44.0426C34.1919 37.2687 43.736 33.3885 47.3944 32.6038Z" fill="#102661"/>
<path d="M54.2467 38.4946V6.70215H58.2059L58.206 42.5837C50.8491 41.0934 41.6329 41.6881 29.5801 45C39.4415 38.2106 49.6214 38.2769 54.2467 38.4946Z" fill="#102661"/>
<path d="M0 42.7905V6.70215H4.46232V39.0361C18.9897 36.5303 29.5802 43.8479 29.5802 45C16.7986 39.6604 6.39077 41.3175 0 42.7905Z" fill="#074FB2"/>
<path d="M47.7098 0L29.5801 9.57447L47.7098 1.7482V0Z" fill="#102661"/>
</svg>
