<svg width="19" height="19" viewBox="0 0 19 19" fill="none" xmlns="http://www.w3.org/2000/svg">
<g id="vuesax/linear/row-vertical">
<g id="row-vertical">
<path id="Vector" d="M15.7543 10.6875H3.246C2.0585 10.6875 1.5835 11.1942 1.5835 12.4529V15.6513C1.5835 16.91 2.0585 17.4167 3.246 17.4167H15.7543C16.9418 17.4167 17.4168 16.91 17.4168 15.6513V12.4529C17.4168 11.1942 16.9418 10.6875 15.7543 10.6875Z" stroke="#64646F" stroke-width="1.5" stroke-linecap="round" stroke-linejoin="round"/>
<path id="Vector_2" d="M15.7543 1.58334H3.246C2.0585 1.58334 1.5835 2.09001 1.5835 3.34876V6.54709C1.5835 7.80584 2.0585 8.31251 3.246 8.31251H15.7543C16.9418 8.31251 17.4168 7.80584 17.4168 6.54709V3.34876C17.4168 2.09001 16.9418 1.58334 15.7543 1.58334Z" stroke="#64646F" stroke-width="1.5" stroke-linecap="round" stroke-linejoin="round"/>
</g>
</g>
</svg>
