<svg width="287" height="39" viewBox="0 0 287 39" fill="none" xmlns="http://www.w3.org/2000/svg">
<g clip-path="url(#clip0_2897_4315)">
<path d="M180.491 13.1277V19.1179H183.935C185.976 19.1179 187.124 17.9708 187.124 16.1865C187.124 14.4022 185.849 13.2552 183.935 13.2552L180.491 13.1277ZM176.282 9.68652H184.19C188.527 9.68652 191.333 12.2355 191.333 16.0591C191.333 18.4806 190.058 20.5199 188.017 21.5395L191.844 28.9316H187.252L183.935 22.4316H180.364V28.9316H176.154L176.282 9.68652Z" fill="#212322"/>
<path d="M203.196 20.2651C202.941 18.4808 201.665 17.5886 199.88 17.5886C198.094 17.5886 196.946 18.6082 196.691 20.2651H203.196ZM192.481 21.9219C192.481 17.4611 195.415 14.6572 199.88 14.6572C204.344 14.6572 207.023 17.3337 207.15 21.4121C207.15 21.7945 207.15 22.3043 207.023 22.6866H196.563V22.9415C196.691 24.9808 197.966 26.1278 199.88 26.1278C201.41 26.1278 202.558 25.4906 202.941 24.0886H206.768C206.257 26.8925 203.834 29.0592 200.007 29.0592C195.415 29.1866 192.481 26.3827 192.481 21.9219Z" fill="#212322"/>
<path d="M218.503 14.7842H222.457V28.9312H219.013L218.63 27.2744C217.737 28.4214 216.462 29.1861 214.421 29.1861C211.487 29.1861 208.681 27.7842 208.681 22.6861V14.7842H212.635V22.0489C212.635 24.5979 213.528 25.8724 215.441 25.8724C217.355 25.8724 218.503 24.4705 218.503 21.794V14.7842Z" fill="#212322"/>
<path d="M224.753 10.833H228.707V14.784H232.024V18.0977H228.707V24.3428C228.707 25.3624 229.09 25.7448 230.11 25.7448H232.151V29.0585H228.835C226.156 29.0585 224.753 27.6565 224.753 24.9801V10.833Z" fill="#212322"/>
<path d="M243.504 20.2651C243.248 18.4808 241.973 17.5886 240.187 17.5886C238.401 17.5886 237.253 18.6082 236.998 20.2651H243.504ZM232.789 21.9219C232.789 17.4611 235.723 14.6572 240.187 14.6572C244.652 14.6572 247.33 17.3337 247.458 21.4121C247.458 21.7945 247.458 22.3043 247.33 22.6866H236.871V22.9415C236.998 24.9808 238.274 26.1278 240.187 26.1278C241.718 26.1278 242.866 25.4906 243.248 24.0886H247.075C246.565 26.8925 244.141 29.0592 240.315 29.0592C235.723 29.1866 232.789 26.3827 232.789 21.9219Z" fill="#212322"/>
<path d="M257.917 14.7842V18.3528H256.387C254.091 18.3528 253.198 19.8822 253.198 22.0489V28.9312H249.244V14.7842H252.815L253.198 16.9508C253.963 15.6763 255.111 14.7842 257.28 14.7842H257.917Z" fill="#212322"/>
<path d="M262.254 24.3431C262.382 25.6176 263.53 26.3823 265.443 26.3823C267.101 26.3823 268.122 25.8725 268.122 24.8529C268.122 23.7058 267.101 23.5784 264.805 23.3235C261.489 22.9411 258.81 22.1764 258.81 19.245C258.81 16.3137 261.361 14.5293 264.933 14.6568C268.759 14.6568 271.438 16.3137 271.693 19.245H267.867C267.739 18.098 266.719 17.4607 265.06 17.4607C263.53 17.4607 262.509 17.9705 262.509 18.8627C262.509 19.8823 263.785 20.0097 265.826 20.2646C269.142 20.647 271.821 21.2842 271.821 24.598C271.821 27.4019 269.142 29.1862 265.315 29.1862C261.489 29.1862 258.555 27.4019 258.427 24.3431H262.254Z" fill="#212322"/>
<path d="M48.3435 9.68652H63.7777V13.2552H58.1653V28.9316H53.9559V13.2552H48.3435V9.68652Z" fill="#212322"/>
<path d="M78.9569 21.1571V29.0591H75.0027V21.5395C75.0027 19.2453 74.1098 17.9708 72.0689 17.9708C70.1556 17.8434 68.88 19.2453 68.88 21.6669V28.9316H65.0533V9.68652H68.88V16.5689C69.7729 15.4218 71.0485 14.6571 73.0893 14.6571C76.4058 14.6571 78.9569 16.314 78.9569 21.1571Z" fill="#212322"/>
<path d="M91.5849 21.9219C91.5849 19.5004 90.1818 17.8435 88.0133 17.8435C85.8449 17.8435 84.4418 19.5004 84.4418 21.9219C84.4418 24.3435 85.8449 26.0004 88.0133 26.0004C90.1818 26.0004 91.5849 24.3435 91.5849 21.9219ZM80.4875 21.9219C80.4875 17.5886 83.4213 14.6572 88.0133 14.6572C92.6053 14.6572 95.5391 17.5886 95.5391 21.9219C95.5391 26.2553 92.6053 29.1866 88.0133 29.1866C83.4213 29.1866 80.4875 26.2553 80.4875 21.9219Z" fill="#212322"/>
<path d="M119.902 20.9023V29.0592H115.948V21.1572C115.948 18.9906 115.183 17.971 113.524 17.971C111.866 17.971 110.718 19.2455 110.718 21.4121V29.1866H106.764V21.2847C106.764 19.118 105.999 18.0984 104.213 18.0984C102.427 18.0984 101.407 19.3729 101.407 21.5396V29.3141H97.4524V14.7847H100.769L101.152 16.569C102.044 15.4219 103.32 14.6572 105.361 14.6572C107.147 14.6572 108.805 15.2945 109.698 17.0788C110.718 15.5494 112.376 14.6572 114.545 14.6572C117.479 14.6572 119.902 16.3141 119.902 20.9023Z" fill="#212322"/>
<path d="M125.132 24.3431C125.26 25.6176 126.408 26.3823 128.321 26.3823C129.979 26.3823 131 25.8725 131 24.8529C131 23.7058 129.979 23.5784 127.683 23.3235C124.367 22.9411 121.688 22.1764 121.688 19.245C121.688 16.3137 124.112 14.5293 127.811 14.6568C131.637 14.6568 134.316 16.3137 134.571 19.245H130.744C130.617 18.098 129.596 17.4607 127.938 17.4607C126.408 17.4607 125.387 17.9705 125.387 18.8627C125.387 19.8823 126.663 20.0097 128.704 20.2646C132.02 20.647 134.699 21.2842 134.699 24.598C134.699 27.4019 132.02 29.1862 128.193 29.1862C124.367 29.1862 121.433 27.4019 121.305 24.3431H125.132Z" fill="#212322"/>
<path d="M146.944 21.9219C146.944 19.5004 145.541 17.8435 143.372 17.8435C141.204 17.8435 139.801 19.5004 139.801 21.9219C139.801 24.3435 141.204 26.0004 143.372 26.0004C145.541 26.0004 146.944 24.3435 146.944 21.9219ZM135.719 21.9219C135.719 17.5886 138.653 14.6572 143.245 14.6572C147.837 14.6572 150.771 17.5886 150.771 21.9219C150.771 26.2553 147.837 29.1866 143.245 29.1866C138.78 29.1866 135.719 26.2553 135.719 21.9219Z" fill="#212322"/>
<path d="M166.588 21.1572V29.0592H162.633V21.5396C162.633 19.118 161.74 17.8435 159.7 17.8435C157.659 17.8435 156.511 19.2455 156.511 21.667V28.9317H152.556V14.7847H156L156.383 16.569C157.276 15.4219 158.679 14.6572 160.848 14.6572C163.909 14.6572 166.588 16.3141 166.588 21.1572Z" fill="#212322"/>
<path d="M33.6748 5.3526C34.185 5.8624 34.4401 6.49966 34.4401 7.26436C34.4401 7.90162 34.185 8.66632 33.6748 9.04868C32.6543 10.0683 30.9961 10.0683 29.9757 9.04868C29.593 8.53887 29.3379 7.90162 29.3379 7.26436C29.3379 6.62711 29.593 5.8624 30.1032 5.48005C30.6134 4.84279 31.2512 4.58789 31.889 4.58789C32.5268 4.58789 33.1646 4.84279 33.6748 5.3526Z" fill="#E82C00"/>
<path d="M5.48506 33.5194C4.46462 32.4998 4.46462 30.8429 5.48506 29.8233C5.99528 29.3135 6.63306 29.0586 7.27084 29.0586C7.90862 29.0586 8.67395 29.3135 9.05662 29.8233C10.0771 30.8429 10.0771 32.4998 9.05662 33.5194C8.54639 34.0292 7.90862 34.2841 7.27084 34.2841C6.63306 34.2841 5.99528 34.0292 5.48506 33.5194Z" fill="#E82C00"/>
<path d="M25.3839 5.60825C24.8737 5.35334 24.3634 4.97099 24.1083 4.33374C23.8532 3.82393 23.8532 3.18668 24.1083 2.54942C24.3634 2.03962 24.7461 1.52981 25.3839 1.27491C25.639 1.14746 26.0217 1.14746 26.2768 1.14746C26.5319 1.14746 26.9145 1.14746 27.1697 1.27491C28.3177 1.78472 28.8279 3.05923 28.4452 4.20628C27.935 5.48079 26.5319 6.11805 25.3839 5.60825Z" fill="#E82C00"/>
<path d="M13.0109 33.2646C13.266 33.2646 13.6487 33.2646 13.9038 33.3921C15.0518 33.9019 15.562 35.1764 15.1793 36.3235C14.9242 36.8333 14.5415 37.3431 13.9038 37.598C13.3935 37.8529 12.7558 37.8529 12.118 37.598C10.97 37.0882 10.4598 35.8137 10.8424 34.6666C11.0975 34.1568 11.4802 33.647 12.118 33.3921C12.3731 33.2646 12.7558 33.2646 13.0109 33.2646Z" fill="#E82C00"/>
<path d="M21.5568 2.16665C21.5568 3.18626 20.6639 4.07841 19.6434 4.07841H19.5159C18.4954 4.07841 17.6025 3.18626 17.6025 2.16665C17.6025 1.14704 18.4954 0.254883 19.5159 0.254883C20.6639 0.254883 21.5568 1.14704 21.5568 2.16665Z" fill="#E82C00"/>
<path d="M19.6438 38.7454C20.7005 38.7454 21.5571 37.8895 21.5571 36.8336C21.5571 35.7778 20.7005 34.9219 19.6438 34.9219C18.5871 34.9219 17.7305 35.7778 17.7305 36.8336C17.7305 37.8895 18.5871 38.7454 19.6438 38.7454Z" fill="#E82C00"/>
<path d="M13.6482 4.97045C13.2656 5.09791 12.7553 5.09791 12.3727 4.97045C11.99 4.843 11.6073 4.46065 11.4798 4.0783C11.0971 3.18614 11.4798 2.29398 12.3727 1.91163C12.6278 1.78418 12.7553 1.78418 13.0105 1.78418C13.6482 1.78418 14.286 2.16653 14.5411 2.80379C14.6687 3.18614 14.6687 3.69594 14.5411 4.0783C14.286 4.46065 14.0309 4.843 13.6482 4.97045Z" fill="#E82C00"/>
<path d="M25.6389 34.0298C25.8941 33.9023 26.0216 33.9023 26.2767 33.9023C26.5318 33.9023 26.6594 33.9023 26.9145 34.0298C27.2972 34.1572 27.6798 34.5396 27.8074 34.922C27.9349 35.3043 27.9349 35.8141 27.8074 36.1965C27.6798 36.5788 27.2972 36.9612 26.9145 37.0886C26.5318 37.2161 26.0216 37.2161 25.6389 37.0886C25.2563 36.9612 24.8736 36.5788 24.7461 36.1965C24.6185 35.8141 24.6185 35.3043 24.7461 34.922C24.8736 34.4121 25.2563 34.1572 25.6389 34.0298Z" fill="#E82C00"/>
<path d="M8.29149 6.37259C8.80171 6.88239 8.80171 7.6471 8.29149 8.1569C7.78127 8.66671 7.01594 8.66671 6.50571 8.1569C5.99549 7.6471 5.99549 6.88239 6.50571 6.37259C6.76082 6.11769 7.14349 5.99023 7.3986 5.99023C7.65371 5.99023 8.03638 6.11769 8.29149 6.37259Z" fill="#E82C00"/>
<path d="M30.9959 30.8433C31.2511 30.5884 31.6337 30.4609 31.8888 30.4609C32.2715 30.4609 32.5266 30.5884 32.7817 30.8433C33.0368 31.0982 33.1644 31.3531 33.1644 31.7354C33.1644 32.1178 33.0368 32.3727 32.7817 32.6276C32.2715 33.1374 31.5062 33.1374 30.9959 32.6276C30.7408 32.3727 30.6133 31.9903 30.6133 31.7354C30.6133 31.4805 30.7408 31.0982 30.9959 30.8433Z" fill="#E82C00"/>
<path d="M2.9342 14.4021C2.04131 14.0197 1.65865 13.1276 2.04131 12.2354C2.29642 11.8531 2.55154 11.4707 2.9342 11.3433C3.18931 11.2158 3.31687 11.2158 3.57198 11.2158C3.82709 11.2158 3.95465 11.2158 4.20976 11.3433C5.10265 11.7256 5.48531 12.6178 5.10265 13.5099C4.97509 13.8923 4.59242 14.2746 4.20976 14.4021C3.82709 14.5295 3.44442 14.5295 2.9342 14.4021Z" fill="#E82C00"/>
<path d="M36.226 24.5982C36.6087 24.7256 36.9914 25.108 37.1189 25.4903C37.2465 25.8727 37.2465 26.3825 37.1189 26.7648C36.7362 27.657 35.8434 28.0393 34.9505 27.657C34.5678 27.5295 34.1851 27.1472 34.0576 26.7648C33.93 26.3825 33.93 25.8727 34.0576 25.4903C34.3127 24.8531 34.9505 24.4707 35.5882 24.4707C35.8434 24.4707 36.0985 24.4707 36.226 24.5982Z" fill="#E82C00"/>
<path d="M2.29615 21.4114C3.35285 21.4114 4.20948 20.5555 4.20948 19.4997C4.20948 18.4438 3.35285 17.5879 2.29615 17.5879C1.23944 17.5879 0.382812 18.4438 0.382812 19.4997C0.382812 20.5555 1.23944 21.4114 2.29615 21.4114Z" fill="#E82C00"/>
<path d="M36.9915 21.4114C38.0482 21.4114 38.9048 20.5555 38.9048 19.4997C38.9048 18.4438 38.0482 17.5879 36.9915 17.5879C35.9348 17.5879 35.0781 18.4438 35.0781 19.4997C35.0781 20.5555 35.9348 21.4114 36.9915 21.4114Z" fill="#E82C00"/>
<path d="M1.53035 27.02C1.02013 25.873 1.65791 24.471 2.80591 24.0886C3.31613 23.8337 3.95391 23.8337 4.59169 24.0886C5.10191 24.3435 5.61213 24.7259 5.86724 25.3631C6.12235 25.873 6.12235 26.5102 5.86724 27.1475C5.61213 27.6573 5.22946 28.1671 4.59169 28.422C4.08146 28.6769 3.44369 28.6769 2.80591 28.422C2.16813 28.0396 1.78546 27.5298 1.53035 27.02Z" fill="#E82C00"/>
<path d="M33.5468 13.7644C33.2917 13.2546 33.2917 12.6173 33.5468 11.9801C33.8019 11.4703 34.1846 10.9605 34.8224 10.7056C35.0775 10.5781 35.4601 10.5781 35.7152 10.5781C36.6081 10.5781 37.501 11.0879 37.8837 11.9801C38.3939 13.1271 37.7561 14.5291 36.6081 14.9115C36.0979 15.1664 35.4601 15.1664 34.8224 14.9115C34.1846 14.784 33.8019 14.2742 33.5468 13.7644Z" fill="#E82C00"/>
<path d="M25.2562 25.108C24.6185 25.7452 24.6185 26.8923 25.2562 27.5295C25.894 28.1668 27.042 28.1668 27.6798 27.5295C28.0625 27.1472 28.19 26.7648 28.19 26.255C28.19 25.7452 28.0625 25.3629 27.6798 24.9805C27.2971 24.5982 26.9145 24.4707 26.4042 24.4707C26.0216 24.5982 25.6389 24.7256 25.2562 25.108ZM25.1287 24.9805C24.3634 25.7452 24.3634 26.8923 25.1287 27.5295C25.894 28.2942 27.042 28.2942 27.6798 27.5295C28.0625 27.1472 28.19 26.7648 28.19 26.255C28.19 25.7452 28.0625 25.3629 27.6798 24.9805C27.2971 24.5982 26.9145 24.4707 26.4042 24.4707C25.894 24.4707 25.5114 24.7256 25.1287 24.9805Z" fill="#E82C00"/>
<path d="M9.94911 18.3532C9.18378 18.0983 8.67356 17.3336 8.92867 16.5689C9.05622 16.1866 9.31133 15.9317 9.56644 15.6768C9.82156 15.5493 10.0767 15.4219 10.3318 15.4219C10.4593 15.4219 10.5869 15.4219 10.7144 15.4219C11.0971 15.5493 11.3522 15.8042 11.6073 16.0591C11.8624 16.4415 11.8624 16.8238 11.7349 17.2062C11.4798 18.0983 10.7144 18.6081 9.94911 18.3532Z" fill="#E82C00"/>
<path d="M28.572 23.3239C28.1893 23.1965 27.9342 22.9416 27.6791 22.6867C27.424 22.3043 27.424 21.922 27.5516 21.5396C27.6791 21.1573 27.9342 20.9024 28.1893 20.6475C28.4444 20.52 28.6996 20.3926 28.9547 20.3926C29.0822 20.3926 29.2098 20.3926 29.2098 20.3926H29.3373C30.1027 20.6475 30.6129 21.4122 30.3578 22.1769C30.2302 22.5592 29.9751 22.8141 29.72 23.069C29.3373 23.4514 28.9547 23.4514 28.572 23.3239Z" fill="#E82C00"/>
<path d="M9.18423 22.3036C9.05668 21.6664 9.31179 21.0291 9.94957 20.9017H10.0771C10.7149 20.7742 11.3527 21.1566 11.4802 21.6664C11.6078 21.9213 11.4802 22.3036 11.3527 22.5585C11.2251 22.8134 10.97 23.0683 10.5873 23.0683C10.3322 23.1958 9.94957 23.0683 9.69445 22.9409C9.43934 22.8134 9.18423 22.5585 9.18423 22.3036Z" fill="#E82C00"/>
<path d="M28.4451 17.9707C28.19 17.8432 27.9349 17.5883 27.9349 17.206C27.8073 16.5687 28.19 15.9314 28.7002 15.804C29.338 15.6765 29.9758 16.0589 30.1033 16.5687C30.2309 17.206 29.8482 17.8432 29.338 17.9707C28.9553 18.2256 28.7002 18.0981 28.4451 17.9707Z" fill="#E82C00"/>
<path d="M13.3936 26.8923C13.0109 27.2747 12.5007 27.2747 12.1181 26.8923C11.7354 26.51 11.7354 26.0002 12.1181 25.6178C12.5007 25.2355 13.0109 25.2355 13.3936 25.6178C13.5212 25.7453 13.6487 26.0002 13.6487 26.2551C13.6487 26.51 13.5212 26.7649 13.3936 26.8923Z" fill="#E82C00"/>
<path d="M27.0414 11.9805C27.169 12.1079 27.2965 12.3628 27.2965 12.6177C27.2965 12.8726 27.169 13.1275 27.0414 13.255C26.6587 13.6374 26.1485 13.6374 25.7659 13.255C25.6383 13.1275 25.5107 12.8726 25.5107 12.6177C25.5107 12.3628 25.6383 12.1079 25.7659 11.9805C25.8934 11.853 26.1485 11.7256 26.4036 11.7256C26.6587 11.7256 26.9139 11.853 27.0414 11.9805Z" fill="#E82C00"/>
<path d="M18.113 28.294C18.2405 28.5489 18.3681 28.9313 18.2405 29.1862C18.113 29.4411 17.9854 29.696 17.7303 29.9509C17.4752 30.0784 17.0925 30.2058 16.8374 30.0784C16.1997 29.9509 15.817 29.3136 16.0721 28.6764C16.1997 28.4215 16.3272 28.1666 16.5823 27.9117C16.8374 27.7842 17.2201 27.6568 17.4752 27.7842C17.7303 27.7842 17.9854 27.9117 18.113 28.294Z" fill="#E82C00"/>
<path d="M21.1745 10.7062C21.047 10.4513 20.9194 10.0689 21.047 9.81403C21.1745 9.55913 21.3021 9.30423 21.5572 9.04933C21.6848 9.04933 21.9399 8.92188 22.0674 8.92188C22.195 8.92188 22.3225 8.92188 22.3225 8.92188C22.5776 9.04933 22.8328 9.17678 23.0879 9.43168C23.2154 9.68658 23.343 10.0689 23.2154 10.3238C23.0879 10.9611 22.4501 11.3434 21.8123 11.0885C21.5572 11.216 21.3021 10.9611 21.1745 10.7062Z" fill="#E82C00"/>
<path d="M22.8326 27.5298C23.2153 27.7847 23.4704 28.0396 23.4704 28.422C23.7255 29.1867 23.2153 29.9514 22.4499 30.2063C22.0673 30.3337 21.6846 30.2063 21.3019 30.0788C20.9193 29.8239 20.6642 29.569 20.6642 29.1867C20.5366 28.8043 20.6642 28.422 20.7917 28.0396C21.0468 27.6572 21.3019 27.4023 21.6846 27.4023C21.8122 27.4023 21.9397 27.4023 22.0673 27.4023C22.4499 27.4023 22.7051 27.4023 22.8326 27.5298Z" fill="#E82C00"/>
<path d="M17.4752 11.5979C16.7099 11.8528 15.9445 11.343 15.6894 10.5783C15.4343 9.81355 15.9445 9.04885 16.7099 8.79395C16.8374 8.79395 16.965 8.79395 17.0925 8.79395C17.7303 8.79395 18.3681 9.1763 18.4956 9.81355C18.7507 10.5783 18.2405 11.343 17.4752 11.5979Z" fill="#E82C00"/>
<path d="M12.7555 14.4016C13.7418 14.4016 14.5413 13.6028 14.5413 12.6173C14.5413 11.6319 13.7418 10.833 12.7555 10.833C11.7692 10.833 10.9697 11.6319 10.9697 12.6173C10.9697 13.6028 11.7692 14.4016 12.7555 14.4016Z" fill="#E82C00"/>
</g>
<defs>
<clipPath id="clip0_2897_4315">
<rect width="287" height="39" fill="white"/>
</clipPath>
</defs>
</svg>
