<svg width="24" height="32" viewBox="0 0 24 32" fill="none" xmlns="http://www.w3.org/2000/svg">
<path d="M21.6424 0H3.87612C1.73893 0 0 1.70436 0 3.79905V25.1855C0 25.1855 0 25.1884 0 25.1914C0.00304009 27.2027 1.60973 28.8534 3.63139 28.9771V30.4416C3.63139 30.7142 3.76971 30.969 4.00076 31.1209C4.23181 31.2729 4.52517 31.3027 4.78206 31.1999L5.94946 30.7351L7.29774 31.3161C7.40566 31.3623 7.51966 31.3846 7.63367 31.3846C7.79327 31.3846 7.95288 31.3399 8.0912 31.252C8.32833 31.1001 8.46969 30.8423 8.46969 30.5652V28.9845H21.6439C22.9436 28.9845 24 27.9491 24 26.6753V2.30923C24 1.03543 22.9436 0 21.6439 0H21.6424ZM1.67205 3.79905C1.67205 2.58782 2.64032 1.63881 3.87612 1.63881H21.6439C22.0209 1.63881 22.3279 1.93975 22.3279 2.30923V20.716C22.3279 21.0855 22.0209 21.3864 21.6439 21.3864H3.87612C3.86548 21.3864 3.85331 21.3864 3.84267 21.3864C3.76667 21.3864 3.69219 21.3894 3.61771 21.3954C3.58883 21.3968 3.55843 21.3998 3.52955 21.4013C3.44898 21.4088 3.36842 21.4177 3.28786 21.4296C3.2681 21.4326 3.24834 21.4371 3.22858 21.44C3.16169 21.4505 3.09633 21.4639 3.03097 21.4773C3.00209 21.4833 2.97473 21.4892 2.94585 21.4967C2.86833 21.5145 2.79232 21.5354 2.71784 21.5592C2.69504 21.5667 2.67376 21.5741 2.65096 21.5816C2.59168 21.6009 2.5324 21.6218 2.47463 21.6442C2.44879 21.6546 2.42143 21.6635 2.39559 21.6754C2.32415 21.7052 2.25271 21.735 2.18278 21.7693C2.15998 21.7797 2.1387 21.7916 2.1159 21.8036C2.06118 21.8304 2.00798 21.8587 1.95478 21.8885C1.93198 21.9019 1.90766 21.9138 1.88486 21.9272C1.81797 21.966 1.75413 22.0062 1.69029 22.0494C1.68269 22.0539 1.67509 22.0583 1.66901 22.0628V3.79905H1.67205ZM6.79764 29.3108L6.29755 29.0962C6.18962 29.0501 6.07562 29.0277 5.96162 29.0277C5.85522 29.0277 5.74729 29.0471 5.64697 29.0888L5.30344 29.2259V26.3341H6.79764V29.3123V29.3108ZM21.6439 27.3457H8.46969V25.5132C8.46969 25.0603 8.09576 24.6938 7.63367 24.6938H4.46741C4.00532 24.6938 3.63139 25.0603 3.63139 25.5132V27.3323C2.53088 27.2131 1.67205 26.2954 1.67205 25.1855C1.67205 23.9936 2.66008 23.0252 3.87612 23.0252H18.7893C18.7893 23.0252 18.7954 23.0252 18.7984 23.0252H21.6439C21.8811 23.0252 22.1106 22.9895 22.3279 22.9254V26.6753C22.3279 27.0448 22.0209 27.3457 21.6439 27.3457Z" fill="#097EDA"/>
<path d="M7.32134 10.1539H19.4477C19.923 10.1539 20.3076 9.77764 20.3076 9.31266V3.61053C20.3076 3.14555 19.923 2.76929 19.4477 2.76929H7.32134C6.84604 2.76929 6.46143 3.14555 6.46143 3.61053V9.31266C6.46143 9.77764 6.84604 10.1539 7.32134 10.1539ZM8.18125 4.45178H18.5878V8.47141H8.18125V4.45178Z" fill="#097EDA"/>
</svg>
