<svg width="47" height="47" viewBox="0 0 47 47" fill="none" xmlns="http://www.w3.org/2000/svg">
<circle cx="23.5" cy="23.5" r="23.5" fill="#89B1CE"/>
<path d="M31.1788 12H17.8976C16.2999 12 15 13.2741 15 14.84V30.8274C15 30.8274 15 30.8296 15 30.8318C15.0023 32.3353 16.2034 33.5693 17.7146 33.6618V34.7566C17.7146 34.9604 17.818 35.1508 17.9908 35.2644C18.1635 35.378 18.3828 35.4003 18.5748 35.3234L19.4475 34.976L20.4554 35.4103C20.5361 35.4448 20.6213 35.4615 20.7065 35.4615C20.8259 35.4615 20.9452 35.4281 21.0486 35.3624C21.2258 35.2488 21.3315 35.0561 21.3315 34.849V33.6673H31.1799C32.1514 33.6673 32.9412 32.8933 32.9412 31.9411V13.7263C32.9412 12.774 32.1514 12 31.1799 12H31.1788ZM16.2499 14.84C16.2499 13.9345 16.9738 13.2251 17.8976 13.2251H31.1799C31.4617 13.2251 31.6912 13.4501 31.6912 13.7263V27.4862C31.6912 27.7624 31.4617 27.9874 31.1799 27.9874H17.8976C17.8896 27.9874 17.8805 27.9874 17.8726 27.9874C17.8158 27.9874 17.7601 27.9896 17.7044 27.9941C17.6828 27.9952 17.6601 27.9974 17.6385 27.9985C17.5783 28.0041 17.5181 28.0108 17.4578 28.0197C17.4431 28.0219 17.4283 28.0253 17.4135 28.0275C17.3635 28.0353 17.3147 28.0453 17.2658 28.0553C17.2442 28.0598 17.2238 28.0642 17.2022 28.0698C17.1442 28.0832 17.0874 28.0988 17.0317 28.1166C17.0147 28.1222 16.9988 28.1277 16.9817 28.1333C16.9374 28.1478 16.8931 28.1634 16.8499 28.1801C16.8306 28.1879 16.8101 28.1945 16.7908 28.2035C16.7374 28.2257 16.684 28.248 16.6317 28.2736C16.6147 28.2814 16.5988 28.2903 16.5817 28.2992C16.5408 28.3193 16.5011 28.3404 16.4613 28.3627C16.4442 28.3727 16.4261 28.3816 16.409 28.3917C16.359 28.4206 16.3113 28.4507 16.2636 28.483C16.2579 28.4863 16.2522 28.4897 16.2477 28.493V14.84H16.2499ZM20.0816 33.9112L19.7077 33.7509C19.627 33.7163 19.5418 33.6996 19.4566 33.6996C19.3771 33.6996 19.2964 33.7141 19.2214 33.7453L18.9646 33.8478V31.686H20.0816V33.9124V33.9112ZM31.1799 32.4423H21.3315V31.0724C21.3315 30.7338 21.052 30.4598 20.7065 30.4598H18.3396C17.9942 30.4598 17.7146 30.7338 17.7146 31.0724V32.4322C16.892 32.3431 16.2499 31.6571 16.2499 30.8274C16.2499 29.9364 16.9885 29.2125 17.8976 29.2125H29.0459C29.0459 29.2125 29.0505 29.2125 29.0527 29.2125H31.1799C31.3572 29.2125 31.5287 29.1857 31.6912 29.1379V31.9411C31.6912 32.2173 31.4617 32.4423 31.1799 32.4423Z" fill="white"/>
<path d="M20.4731 19.5904H29.5382C29.8935 19.5904 30.181 19.3092 30.181 18.9616V14.6989C30.181 14.3513 29.8935 14.0701 29.5382 14.0701H20.4731C20.1178 14.0701 19.8303 14.3513 19.8303 14.6989V18.9616C19.8303 19.3092 20.1178 19.5904 20.4731 19.5904ZM21.116 15.3278H28.8953V18.3327H21.116V15.3278Z" fill="white"/>
</svg>
