<svg width="14" height="14" viewBox="0 0 14 14" fill="none" xmlns="http://www.w3.org/2000/svg">
<path d="M6.99984 12.8334C10.2215 12.8334 12.8332 10.2217 12.8332 7.00008C12.8332 3.77842 10.2215 1.16675 6.99984 1.16675C3.77818 1.16675 1.1665 3.77842 1.1665 7.00008C1.1665 10.2217 3.77818 12.8334 6.99984 12.8334Z" stroke="#7B8890" stroke-linecap="round" stroke-linejoin="round"/>
<path d="M4.66676 1.75H5.2501C4.1126 5.15667 4.1126 8.84333 5.2501 12.25H4.66676" stroke="#7B8890" stroke-linecap="round" stroke-linejoin="round"/>
<path d="M8.75 1.75C9.8875 5.15667 9.8875 8.84333 8.75 12.25" stroke="#7B8890" stroke-linecap="round" stroke-linejoin="round"/>
<path d="M1.75 9.33333V8.75C5.15667 9.8875 8.84333 9.8875 12.25 8.75V9.33333" stroke="#7B8890" stroke-linecap="round" stroke-linejoin="round"/>
<path d="M1.75 5.2501C5.15667 4.1126 8.84333 4.1126 12.25 5.2501" stroke="#7B8890" stroke-linecap="round" stroke-linejoin="round"/>
</svg>
