<svg width="32" height="32" viewBox="0 0 32 32" fill="none" xmlns="http://www.w3.org/2000/svg">
<path d="M21.3334 2.66675H10.6667C5.33341 2.66675 2.66675 5.33341 2.66675 10.6667V28.0001C2.66675 28.7334 3.26675 29.3334 4.00008 29.3334H21.3334C26.6667 29.3334 29.3334 26.6667 29.3334 21.3334V10.6667C29.3334 5.33341 26.6667 2.66675 21.3334 2.66675Z" stroke="#097EDA" stroke-width="2" stroke-linecap="round" stroke-linejoin="round"/>
<path d="M17.2132 10.4533L10.2932 17.3733C10.0266 17.64 9.77323 18.16 9.71989 18.5333L9.34656 21.1733C9.21323 22.1333 9.87989 22.8 10.8399 22.6666L13.4799 22.2933C13.8532 22.24 14.3732 21.9866 14.6399 21.72L21.5599 14.8C22.7466 13.6133 23.3199 12.2266 21.5599 10.4666C19.7999 8.69329 18.4132 9.25329 17.2132 10.4533Z" stroke="#097EDA" stroke-width="2" stroke-miterlimit="10" stroke-linecap="round" stroke-linejoin="round"/>
<path d="M16.2266 11.4399C16.8132 13.5333 18.4532 15.1866 20.5599 15.7733" stroke="#097EDA" stroke-width="2" stroke-miterlimit="10" stroke-linecap="round" stroke-linejoin="round"/>
</svg>
