<svg width="47" height="47" viewBox="0 0 47 47" fill="none" xmlns="http://www.w3.org/2000/svg">
<circle cx="23.5" cy="23.5" r="23.5" fill="#9EC8B9"/>
<path d="M34.9083 15.8848V28.5097C34.9083 29.5139 34.0924 30.4552 33.0883 30.5807L32.7431 30.6226C30.4629 30.926 26.9484 32.087 24.9401 33.1957C24.6681 33.3526 24.2184 33.3526 23.936 33.1957L23.8941 33.1748C21.8859 32.0765 18.3819 30.926 16.1121 30.6226L15.8088 30.5807C14.8046 30.4552 13.9888 29.5139 13.9888 28.5097V15.8743C13.9888 14.6296 15.0033 13.6883 16.248 13.7929C18.4446 13.9707 21.7708 15.0794 23.6326 16.2405L23.8941 16.3973C24.1975 16.5856 24.6996 16.5856 25.0029 16.3973L25.1807 16.2823C25.8397 15.8743 26.6765 15.4664 27.5865 15.1003V19.3679L29.6784 17.9768L31.7704 19.3679V13.908C32.0528 13.8557 32.3247 13.8242 32.5758 13.8033H32.6385C33.8832 13.6987 34.9083 14.6296 34.9083 15.8848Z" stroke="white" stroke-width="1.5" stroke-linecap="round" stroke-linejoin="round"/>
<path d="M24.4485 16.7424V32.4321" stroke="white" stroke-width="1.5" stroke-linecap="round" stroke-linejoin="round"/>
<path d="M31.7703 13.908V19.3679L29.6784 17.9768L27.5864 19.3679V15.1003C28.9567 14.5564 30.4838 14.1172 31.7703 13.908Z" stroke="white" stroke-width="1.5" stroke-linecap="round" stroke-linejoin="round"/>
<path d="M13.7571 17.8775C14.0625 17.6164 14.5625 17.6164 14.8723 17.8775L15.5715 18.4793C15.7042 18.5944 15.9521 18.6873 16.1291 18.6873H16.8814C17.3504 18.6873 17.7354 19.0723 17.7354 19.5414V20.2937C17.7354 20.4662 17.8284 20.7185 17.9434 20.8512L18.5453 21.5504C18.8064 21.8558 18.8064 22.3558 18.5453 22.6656L17.9434 23.3648C17.8284 23.4976 17.7354 23.7454 17.7354 23.9224V24.6747C17.7354 25.1438 17.3504 25.5288 16.8814 25.5288H16.1291C15.9565 25.5288 15.7042 25.6217 15.5715 25.7368L14.8723 26.3386C14.5669 26.5997 14.0669 26.5997 13.7571 26.3386L13.0579 25.7368C12.9252 25.6217 12.6773 25.5288 12.5003 25.5288H11.7348C11.2657 25.5288 10.8807 25.1438 10.8807 24.6747V23.918C10.8807 23.7454 10.7878 23.4976 10.6771 23.3648L10.0797 22.6612C9.82304 22.3558 9.82304 21.8602 10.0797 21.5549L10.6771 20.8512C10.7878 20.7185 10.8807 20.4707 10.8807 20.2981V19.5369C10.8807 19.0679 11.2657 18.6829 11.7348 18.6829H12.5003C12.6729 18.6829 12.9252 18.5899 13.0579 18.4749L13.7571 17.8775Z" fill="white"/>
<path d="M12.7083 22.1036L13.7747 23.1746L15.9122 21.0327" stroke="#9EC8B9" stroke-linecap="round" stroke-linejoin="round"/>
</svg>
