<svg width="47" height="47" viewBox="0 0 47 47" fill="none" xmlns="http://www.w3.org/2000/svg">
<circle cx="23.5" cy="23.5" r="23.5" fill="#F0A558"/>
<path d="M34 16.6699V28.74C34 29.7 33.22 30.5999 32.26 30.7199L31.93 30.76C29.75 31.05 26.39 32.1599 24.47 33.2199C24.21 33.3699 23.78 33.3699 23.51 33.2199L23.47 33.2C21.55 32.15 18.2 31.05 16.03 30.76L15.74 30.7199C14.78 30.5999 14 29.7 14 28.74V16.6599C14 15.4699 14.97 14.5699 16.16 14.6699C18.26 14.8399 21.44 15.9 23.22 17.01L23.47 17.1599C23.76 17.3399 24.24 17.3399 24.53 17.1599L24.7 17.0499C25.33 16.6599 26.13 16.2699 27 15.9199V20L29 18.6699L31 20V14.78C31.27 14.73 31.53 14.7 31.77 14.68H31.83C33.02 14.58 34 15.4699 34 16.6699Z" stroke="white" stroke-width="1.5" stroke-linecap="round" stroke-linejoin="round"/>
<path d="M24 17.49V32.49" stroke="white" stroke-width="1.5" stroke-linecap="round" stroke-linejoin="round"/>
<path d="M31 14.78V20L29 18.67L27 20V15.92C28.31 15.4 29.77 14.98 31 14.78Z" stroke="white" stroke-width="1.5" stroke-linecap="round" stroke-linejoin="round"/>
</svg>
