<svg width="32" height="32" viewBox="0 0 32 32" fill="none" xmlns="http://www.w3.org/2000/svg">
<path d="M12.2134 14.4934C12.0801 14.4801 11.9201 14.4801 11.7734 14.4934C8.60008 14.3867 6.08008 11.7867 6.08008 8.58675C6.08008 5.32008 8.72008 2.66675 12.0001 2.66675C15.2667 2.66675 17.9201 5.32008 17.9201 8.58675C17.9067 11.7867 15.3867 14.3867 12.2134 14.4934Z" stroke="#097EDA" stroke-width="2" stroke-linecap="round" stroke-linejoin="round"/>
<path d="M21.8801 5.33325C24.4668 5.33325 26.5468 7.42659 26.5468 9.99992C26.5468 12.5199 24.5468 14.5733 22.0535 14.6666C21.9468 14.6533 21.8268 14.6533 21.7068 14.6666" stroke="#097EDA" stroke-width="2" stroke-linecap="round" stroke-linejoin="round"/>
<path d="M5.54671 19.4133C2.32004 21.5733 2.32004 25.0933 5.54671 27.2399C9.21338 29.6933 15.2267 29.6933 18.8934 27.2399C22.12 25.0799 22.12 21.5599 18.8934 19.4133C15.24 16.9733 9.22671 16.9733 5.54671 19.4133Z" stroke="#097EDA" stroke-width="2" stroke-linecap="round" stroke-linejoin="round"/>
<path d="M24.4534 26.6667C25.4134 26.4667 26.32 26.0801 27.0667 25.5067C29.1467 23.9467 29.1467 21.3734 27.0667 19.8134C26.3334 19.2534 25.44 18.8801 24.4934 18.6667" stroke="#097EDA" stroke-width="2" stroke-linecap="round" stroke-linejoin="round"/>
</svg>
