<svg width="26" height="26" viewBox="0 0 26 26" fill="none" xmlns="http://www.w3.org/2000/svg">
<path d="M23.8335 6.50008V9.12175C23.8335 10.8334 22.7502 11.9167 21.0385 11.9167H17.3335V4.34425C17.3335 3.14175 18.3193 2.16675 19.5218 2.16675C20.7027 2.17758 21.786 2.65425 22.566 3.43425C23.346 4.22508 23.8335 5.30841 23.8335 6.50008Z" stroke="#097EDA" stroke-width="1.5" stroke-miterlimit="10" stroke-linecap="round" stroke-linejoin="round"/>
<path d="M2.1665 7.58341V22.7501C2.1665 23.6492 3.18484 24.1584 3.89984 23.6168L5.75234 22.2301C6.18567 21.9051 6.79234 21.9484 7.18234 22.3384L8.98067 24.1476C9.40317 24.5701 10.0965 24.5701 10.519 24.1476L12.339 22.3276C12.7182 21.9484 13.3248 21.9051 13.7473 22.2301L15.5998 23.6168C16.3148 24.1476 17.3332 23.6384 17.3332 22.7501V4.33341C17.3332 3.14175 18.3082 2.16675 19.4998 2.16675H7.58317H6.49984C3.24984 2.16675 2.1665 4.10591 2.1665 6.50008V7.58341Z" stroke="#097EDA" stroke-width="1.5" stroke-miterlimit="10" stroke-linecap="round" stroke-linejoin="round"/>
<path d="M9.75 14.0942H13" stroke="#097EDA" stroke-width="1.5" stroke-linecap="round" stroke-linejoin="round"/>
<path d="M9.75 9.76074H13" stroke="#097EDA" stroke-width="1.5" stroke-linecap="round" stroke-linejoin="round"/>
<path d="M6.49512 14.0833H6.50485" stroke="#097EDA" stroke-width="1.5" stroke-linecap="round" stroke-linejoin="round"/>
<path d="M6.49512 9.75H6.50485" stroke="#097EDA" stroke-width="1.5" stroke-linecap="round" stroke-linejoin="round"/>
</svg>
