<svg width="32" height="35" viewBox="0 0 32 35" fill="none" xmlns="http://www.w3.org/2000/svg">
<path d="M29.3332 15.1373V23.1373C29.3332 23.4306 29.3332 23.724 29.3065 24.004C28.2132 22.6573 26.5465 21.804 24.6665 21.804C23.2532 21.804 21.9465 22.2973 20.9198 23.1239C19.5332 24.2173 18.6665 25.9106 18.6665 27.804C18.6665 28.924 18.9865 29.9906 19.5332 30.8973C19.8932 31.4973 20.3465 32.0173 20.8798 32.4439C20.5998 32.4706 20.3065 32.4706 19.9998 32.4706H11.9998C5.33317 32.4706 2.6665 29.804 2.6665 23.1373V15.1373C2.6665 8.47062 5.33317 5.80396 11.9998 5.80396H19.9998C26.6665 5.80396 29.3332 8.47062 29.3332 15.1373Z" stroke="#097EDA" stroke-width="2" stroke-linecap="round" stroke-linejoin="round"/>
<path d="M3.35986 12.6172H28.6399" stroke="#097EDA" stroke-width="2" stroke-linecap="round" stroke-linejoin="round"/>
<path d="M11.3599 5.95044V12.4304" stroke="#097EDA" stroke-width="2" stroke-linecap="round" stroke-linejoin="round"/>
<path d="M20.6396 5.95044V11.8305" stroke="#097EDA" stroke-width="2" stroke-linecap="round" stroke-linejoin="round"/>
<path d="M30.6665 27.804C30.6665 28.924 30.3465 29.9906 29.7998 30.8973C29.4798 31.4306 29.0798 31.9106 28.6132 32.3106C27.5598 33.244 26.1865 33.804 24.6665 33.804C23.2398 33.804 21.9198 33.2973 20.8932 32.4439H20.8798C20.3465 32.0173 19.8932 31.4973 19.5332 30.8973C18.9865 29.9906 18.6665 28.924 18.6665 27.804C18.6665 25.9106 19.5332 24.2173 20.9198 23.1239C21.9465 22.2973 23.2532 21.804 24.6665 21.804C26.5465 21.804 28.2132 22.6573 29.3065 24.004C30.1598 25.0307 30.6665 26.364 30.6665 27.804Z" stroke="#097EDA" stroke-width="2" stroke-miterlimit="10" stroke-linecap="round" stroke-linejoin="round"/>
<path d="M22.333 27.804L23.813 29.2839L27.013 26.324" stroke="#097EDA" stroke-width="2" stroke-linecap="round" stroke-linejoin="round"/>
</svg>
