<svg width="47" height="47" viewBox="0 0 47 47" fill="none" xmlns="http://www.w3.org/2000/svg">
<circle cx="23.5" cy="23.5" r="23.5" fill="#097EDA"/>
<path d="M22.6476 28.2654V30.4646C22.6476 32.3279 20.9143 33.8337 18.7801 33.8337C16.6459 33.8337 14.9017 32.3279 14.9017 30.4646V28.2654C14.9017 30.1287 16.6351 31.4504 18.7801 31.4504C20.9143 31.4504 22.6476 30.1179 22.6476 28.2654Z" stroke="white" stroke-width="1.4" stroke-linecap="round" stroke-linejoin="round"/>
<path d="M22.6458 25.2858C22.6458 25.8275 22.4941 26.3258 22.2341 26.7591C21.595 27.8099 20.2841 28.4708 18.7674 28.4708C17.2508 28.4708 15.9399 27.7991 15.3008 26.7591C15.0408 26.3258 14.8892 25.8275 14.8892 25.2858C14.8892 24.3541 15.3225 23.52 16.0158 22.9133C16.72 22.2958 17.6841 21.9275 18.7566 21.9275C19.8291 21.9275 20.7933 22.3066 21.4975 22.9133C22.2125 23.5091 22.6458 24.3541 22.6458 25.2858Z" stroke="white" stroke-width="1.4" stroke-linecap="round" stroke-linejoin="round"/>
<path d="M22.6476 25.2859V28.2651C22.6476 30.1284 20.9143 31.4501 18.7801 31.4501C16.6459 31.4501 14.9017 30.1176 14.9017 28.2651V25.2859C14.9017 23.4226 16.6351 21.9167 18.7801 21.9167C19.8526 21.9167 20.8168 22.2959 21.5209 22.9026C22.2143 23.5092 22.6476 24.3542 22.6476 25.2859Z" stroke="white" stroke-width="1.4" stroke-linecap="round" stroke-linejoin="round"/>
<path d="M34.8334 21.8843V24.116C34.8334 24.7118 34.3567 25.1993 33.7501 25.2209H31.6267C30.4567 25.2209 29.3842 24.3651 29.2867 23.1951C29.2217 22.5126 29.4817 21.8734 29.9367 21.4293C30.3375 21.0176 30.89 20.7793 31.4967 20.7793H33.7501C34.3567 20.801 34.8334 21.2884 34.8334 21.8843Z" stroke="white" stroke-width="1.4" stroke-linecap="round" stroke-linejoin="round"/>
<path d="M13.1666 21.3751V19.2084C13.1666 16.2617 14.9433 14.2034 17.7058 13.8567C17.9875 13.8134 18.28 13.7917 18.5833 13.7917H28.3333C28.615 13.7917 28.8858 13.8026 29.1458 13.8459C31.9408 14.1709 33.75 16.2401 33.75 19.2084V20.7793H31.4966C30.8899 20.7793 30.3374 21.0176 29.9366 21.4292C29.4816 21.8734 29.2216 22.5126 29.2866 23.1951C29.3841 24.3651 30.4566 25.2209 31.6266 25.2209H33.75V26.7917C33.75 30.0417 31.5833 32.2084 28.3333 32.2084H25.625" stroke="white" stroke-width="1.4" stroke-linecap="round" stroke-linejoin="round"/>
</svg>
