<svg width="26" height="26" viewBox="0 0 26 26" fill="none" xmlns="http://www.w3.org/2000/svg">
<path d="M11.6477 18.2654V20.4646C11.6477 22.3279 9.91437 23.8337 7.78021 23.8337C5.64604 23.8337 3.90186 22.3279 3.90186 20.4646V18.2654C3.90186 20.1287 5.63521 21.4504 7.78021 21.4504C9.91437 21.4504 11.6477 20.1179 11.6477 18.2654Z" stroke="#097EDA" stroke-width="1.5" stroke-linecap="round" stroke-linejoin="round"/>
<path d="M11.6458 15.2858C11.6458 15.8275 11.4941 16.3258 11.2341 16.7591C10.595 17.8099 9.28411 18.4708 7.76745 18.4708C6.25078 18.4708 4.93993 17.7991 4.30077 16.7591C4.04077 16.3258 3.88916 15.8275 3.88916 15.2858C3.88916 14.3541 4.32247 13.52 5.0158 12.9133C5.71997 12.2958 6.6841 11.9275 7.7566 11.9275C8.8291 11.9275 9.7933 12.3066 10.4975 12.9133C11.2125 13.5091 11.6458 14.3541 11.6458 15.2858Z" stroke="#097EDA" stroke-width="1.5" stroke-linecap="round" stroke-linejoin="round"/>
<path d="M11.6477 15.2859V18.2651C11.6477 20.1284 9.91437 21.4501 7.78021 21.4501C5.64604 21.4501 3.90186 20.1176 3.90186 18.2651V15.2859C3.90186 13.4226 5.63521 11.9167 7.78021 11.9167C8.85271 11.9167 9.81691 12.2959 10.5211 12.9026C11.2144 13.5092 11.6477 14.3542 11.6477 15.2859Z" stroke="#097EDA" stroke-width="1.5" stroke-linecap="round" stroke-linejoin="round"/>
<path d="M23.8334 11.8843V14.116C23.8334 14.7118 23.3567 15.1993 22.7501 15.2209H20.6267C19.4567 15.2209 18.3842 14.3651 18.2867 13.1951C18.2217 12.5126 18.4817 11.8734 18.9367 11.4293C19.3375 11.0176 19.89 10.7793 20.4967 10.7793H22.7501C23.3567 10.801 23.8334 11.2884 23.8334 11.8843Z" stroke="#097EDA" stroke-width="1.5" stroke-linecap="round" stroke-linejoin="round"/>
<path d="M2.1665 11.3751V9.20841C2.1665 6.26175 3.94317 4.20341 6.70567 3.85675C6.98734 3.81341 7.27984 3.79175 7.58317 3.79175H17.3332C17.6148 3.79175 17.8857 3.80257 18.1457 3.8459C20.9407 4.1709 22.7498 6.24008 22.7498 9.20841V10.7793H20.4965C19.8898 10.7793 19.3373 11.0176 18.9365 11.4292C18.4815 11.8734 18.2215 12.5126 18.2865 13.1951C18.384 14.3651 19.4565 15.2209 20.6265 15.2209H22.7498V16.7917C22.7498 20.0417 20.5832 22.2084 17.3332 22.2084H14.6248" stroke="#097EDA" stroke-width="1.5" stroke-linecap="round" stroke-linejoin="round"/>
</svg>
